<svg width="16" height="17" viewBox="0 0 16 17" fill="none" xmlns="http://www.w3.org/2000/svg">
<path d="M9.00001 4.94497L11.6667 7.61163M2.66667 13.945H5.33334L12.3333 6.94496C12.5084 6.76987 12.6473 6.562 12.7421 6.33323C12.8369 6.10445 12.8856 5.85925 12.8856 5.61163C12.8856 5.36401 12.8369 5.11881 12.7421 4.89004C12.6473 4.66126 12.5084 4.45339 12.3333 4.2783C12.1582 4.1032 11.9504 3.96431 11.7216 3.86955C11.4928 3.77479 11.2476 3.72601 11 3.72601C10.7524 3.72601 10.5072 3.77479 10.2784 3.86955C10.0496 3.96431 9.84177 4.1032 9.66667 4.2783L2.66667 11.2783V13.945Z" stroke="#734A00" stroke-width="1.25" stroke-linecap="round" stroke-linejoin="round"/>
</svg>
